<svg width="1024" height="1024" viewBox="0 0 1024 1024" fill="none" xmlns="http://www.w3.org/2000/svg">
<path fill-rule="evenodd" clip-rule="evenodd" d="M613.214 973.699C701.727 964.005 785.377 928.282 853.586 871.048L824.648 836.56C763.259 888.072 687.974 920.222 608.313 928.946C528.652 937.671 448.193 922.577 377.11 885.574C306.027 848.57 247.514 791.319 208.969 721.061C170.423 650.802 153.578 570.692 160.562 490.859C167.547 411.027 198.047 335.058 248.207 272.56C272.264 242.586 300.324 216.356 331.446 194.515L259.76 194.515C243.034 209.868 227.426 226.527 213.097 244.381C157.364 313.823 123.474 398.233 115.713 486.935C107.953 575.638 126.67 664.65 169.498 742.715C212.326 820.78 277.341 884.392 356.322 925.507C435.303 966.622 524.702 983.393 613.214 973.699ZM868.645 194.515L796.958 194.515C825.672 214.666 851.799 238.567 874.589 265.727L909.077 236.789C896.482 221.779 882.971 207.666 868.645 194.515Z" fill="white"/>
<path fill-rule="evenodd" clip-rule="evenodd" d="M653.46 884.166C729.06 865.317 796.753 823.017 846.836 763.331L790.309 715.899C750.243 763.649 696.089 797.488 635.608 812.567C575.128 827.647 511.426 823.192 453.633 799.842C395.839 776.492 346.922 735.446 313.891 682.585C280.86 629.724 265.411 567.764 269.759 505.584C274.107 443.403 298.029 384.196 338.095 336.447C378.161 288.697 432.315 254.858 492.796 239.779C553.277 224.699 616.978 229.154 674.772 252.504C732.565 275.854 781.483 316.9 814.514 369.761L877.092 330.658C840.346 271.853 787.873 224.745 725.848 194.515L402.556 194.515C356.301 217.06 315.009 249.162 281.568 289.015C231.485 348.701 201.584 422.711 196.148 500.436C190.713 578.161 210.024 655.612 251.313 721.688C292.601 787.764 353.749 839.072 425.99 868.26C498.232 897.447 577.859 903.015 653.46 884.166Z" fill="white"/>
<path d="M720.841 195.175C719.302 197.842 715.453 197.842 713.913 195.175L680.469 137.247C678.929 134.581 680.854 131.247 683.933 131.247L750.822 131.247C753.901 131.247 755.826 134.581 754.286 137.247L720.841 195.175Z" fill="white"/>
<rect x="664.099" y="48" width="106.557" height="106.557" rx="10" fill="white"/>
</svg>
