<svg width="1024" height="1024" viewBox="0 0 1024 1024" fill="none" xmlns="http://www.w3.org/2000/svg">
<path fill-rule="evenodd" clip-rule="evenodd" d="M613.214 973.699C701.727 964.005 785.377 928.282 853.586 871.048L766.771 767.585C719.024 807.65 660.469 832.656 598.511 839.441C536.552 846.227 473.973 834.487 418.686 805.707C363.4 776.926 317.889 732.398 287.909 677.752C257.93 623.107 244.828 560.799 250.26 498.707C255.692 436.615 279.415 377.528 318.428 328.919C357.442 280.309 409.993 244.36 469.437 225.617C528.882 206.875 592.549 206.18 652.388 223.622C712.227 241.063 765.55 275.857 805.614 323.604L909.077 236.789C896.482 221.779 882.971 207.666 868.645 194.515L259.76 194.515C243.034 209.868 227.426 226.527 213.097 244.381C157.364 313.823 123.474 398.233 115.713 486.935C107.953 575.638 126.67 664.65 169.498 742.715C212.326 820.78 277.341 884.392 356.322 925.507C435.303 966.622 524.702 983.393 613.214 973.699Z" fill="white"/>
<path fill-rule="evenodd" clip-rule="evenodd" d="M598.102 808.272C653.93 802.158 706.691 779.626 749.714 743.526L694.956 678.268C664.84 703.538 627.907 719.311 588.828 723.591C549.748 727.871 510.277 720.466 475.405 702.313C440.534 684.16 411.828 656.074 392.919 621.607C374.01 587.14 365.746 547.84 369.172 508.676C372.599 469.512 387.561 432.244 412.169 401.584C436.776 370.924 469.922 348.249 507.416 336.428C544.91 324.606 585.067 324.168 622.81 335.169C660.553 346.17 694.186 368.116 719.456 398.232L784.714 343.474C748.614 300.451 700.567 269.1 646.648 253.384C592.73 237.668 535.362 238.294 481.799 255.182C428.237 272.07 380.885 304.463 345.732 348.263C310.579 392.062 289.203 445.303 284.308 501.251C279.413 557.199 291.219 613.343 318.232 662.582C345.246 711.82 386.253 751.943 436.07 777.876C485.886 803.808 542.274 814.387 598.102 808.272Z" fill="white"/>
<path d="M720.842 195.175C719.302 197.842 715.453 197.842 713.913 195.175L680.469 137.247C678.929 134.581 680.854 131.247 683.933 131.247L750.822 131.247C753.901 131.247 755.826 134.581 754.286 137.247L720.842 195.175Z" fill="white"/>
<rect x="664.099" y="48" width="106.557" height="106.557" rx="10" fill="white"/>
</svg>
